<svg xmlns="http://www.w3.org/2000/svg" xmlns:xlink="http://www.w3.org/1999/xlink" version="1.1" x="0px" y="0px" viewBox="0 0 100 125" enable-background="new 0 0 100 100" xml:space="preserve"><path d="M25,84c0,4.963,4.037,9,9,9s9-4.037,9-9s-4.037-9-9-9S25,79.037,25,84z M37,84c0,1.654-1.345,3-3,3  s-3-1.346-3-3s1.345-3,3-3S37,82.346,37,84z"/><path d="M70,75c-4.963,0-9,4.037-9,9s4.037,9,9,9s9-4.037,9-9S74.963,75,70,75z M70,87c-1.655,0-3-1.346-3-3  s1.345-3,3-3s3,1.346,3,3S71.655,87,70,87z"/><path d="M16.299,12c4.099,38.924,0.365,3.454,5.153,48.943C21.935,65.537,25.785,69,30.402,69h46.746  c4.219,0,7.919-2.993,8.801-7.115l7.207-33.631c0.381-1.78-0.059-3.612-1.204-5.027C90.809,21.812,89.107,21,87.288,21h-64.01  L21.982,8.687C21.824,7.159,20.535,6,19,6h-9C8.342,6,7,7.343,7,9s1.342,3,3,3H16.299z M87.291,27l-7.207,33.63  C79.788,62.002,78.555,63,77.148,63H30.402c-1.541,0-2.821-1.154-2.985-2.685L23.91,27H87.291z"/><path d="M41.336,50.496c-1.38-0.918-1.752-2.782-0.832-4.16c0.917-1.38,2.774-1.753,4.16-0.832l6.712,4.474  l10.28-12.851c1.037-1.291,2.924-1.506,4.219-0.469c1.292,1.034,1.503,2.922,0.469,4.216l-12,15  c-0.982,1.223-2.719,1.482-4.008,0.623L41.336,50.496z"/><text x="0" y="115" fill="#000000" font-size="5px" font-weight="bold" font-family="'Helvetica Neue', Helvetica, Arial-Unicode, Arial, Sans-serif">Created by Ayub Irawan</text><text x="0" y="120" fill="#000000" font-size="5px" font-weight="bold" font-family="'Helvetica Neue', Helvetica, Arial-Unicode, Arial, Sans-serif">from the Noun Project</text></svg>